# xmcd CD Database Entry
#
# Track frame offsets:
# 183
# 14100
# 23780
# 41093
# 52235
# 65728
# 77755
# 86888
# 96370
# 107488
# 120490
# 133250
# 142705
# 152568
# 161643
# 174908
#
# Disc length: 2568 seconds
#
# Revision: 2
# Processed by: cddbd v1.4PL0 Copyright (c) Steve Scherf et al.
# Submitted via: tcd 2.0b
#
DISCID=d90a0610
DTITLE=Various Artist - Golden Intstrumentals
DYEAR=1900
DGENRE=
TTITLE0=Delicado
TTITLE1=Santa Lucia
TTITLE2=Verde
TTITLE3=Espana Walzer
TTITLE4=Red River Rock
TTITLE5=High Noon
TTITLE6=Wheels
TTITLE7=Barcarole
TTITLE8=Viva La Feria
TTITLE9=Gitarren Serenade
TTITLE10=Santo Domingo
TTITLE11=Riders in the sky
TTITLE12=Cielito Lindo
TTITLE13=Swinging Creeper
TTITLE14=Romantic Song
TTITLE15=Maria Elena
EXTD=
EXTT0=
EXTT1=
EXTT2=
EXTT3=
EXTT4=
EXTT5=
EXTT6=
EXTT7=
EXTT8=
EXTT9=
EXTT10=
EXTT11=
EXTT12=
EXTT13=
EXTT14=
EXTT15=
PLAYORDER=
